<?xml version="1.0" encoding="UTF-8"?>
<svg xmlns="http://www.w3.org/2000/svg" width="24" height="24" viewBox="0 0 108.0 108.0">
  <g>
    <path d="M73.69,42.08l-12.17,-5.53c-0.43,-0.2 -0.9,-0.22 -1.33,-0.12v12.44h12.66l1.85,-4.08C75.18,43.76 74.72,42.55 73.69,42.08z" fill="#000000" fill-opacity="0.25" />
    <path d="M41.13,48.87c-0.01,-0.05 -0.03,-0.09 -0.03,-0.14v-6.25v-0c0,-2.52 1.28,-4.75 3.22,-6.07l-1.56,-2.08c-0.16,-0.21 -0.11,-0.5 0.09,-0.66c0.21,-0.15 0.5,-0.11 0.66,0.09l1.62,2.16c1,-0.5 2.12,-0.79 3.31,-0.79c1.19,0 2.32,0.29 3.31,0.79l1.62,-2.16c0.16,-0.21 0.45,-0.25 0.66,-0.09c0.21,0.16 0.25,0.45 0.09,0.66l-1.56,2.08c1.94,1.32 3.22,3.55 3.22,6.07v0v6.25c0,0.05 -0.02,0.09 -0.03,0.14h4.44V33.58c0,-1.2 -0.98,-2.18 -2.18,-2.18H38.87c-1.2,0 -2.18,0.98 -2.18,2.18v15.29H41.13z" fill="#000000" fill-opacity="0.5" />
    <path d="M51.57,39.36m-1.09,0a1.09,1.09 0,1 1,2.19 0a1.09,1.09 0,1 1,-2.19 0z" fill="#000000" fill-opacity="0.5" />
    <path d="M45.32,39.36m-1.09,0a1.09,1.09 0,1 1,2.19 0a1.09,1.09 0,1 1,-2.19 0z" fill="#000000" fill-opacity="0.5" />
    <path d="M35.74,48.87h36.53v22.55h-36.53z" fill="#000000" fill-opacity="0.25" />
    <path d="M72.26,45.69H53.84c-1.07,-1.07 -2.13,-2.13 -3.2,-3.2c-0.6,-0.6 -1.4,-0.93 -2.25,-0.93H35.74c-1.75,0 -3.18,1.42 -3.18,3.18v26.68c0,1.75 1.42,3.18 3.18,3.18h36.53c1.75,0 3.18,-1.42 3.18,-3.18V48.87C75.44,47.12 74.02,45.69 72.26,45.69zM50.77,65.06c0,0.62 -0.5,1.12 -1.12,1.12h-0c-0.62,0 -1.12,-0.5 -1.12,-1.12v-9.18l-1.68,2.53v0.43c0,0.62 -0.5,1.12 -1.12,1.12s-1.12,-0.5 -1.12,-1.12v-0.43l-1.68,-2.53v9.18c0,0.62 -0.5,1.12 -1.12,1.12s-1.12,-0.5 -1.12,-1.12V53.22c0,-0.31 0.25,-0.56 0.56,-0.56h1.94c0.19,0 0.36,0.09 0.47,0.25l2.09,3.13l2.09,-3.13c0.1,-0.16 0.28,-0.25 0.47,-0.25h1.94c0.31,0 0.56,0.25 0.56,0.56V65.06zM67.33,55.46c0,0.62 -0.5,1.12 -1.12,1.12c-0.62,0 -1.12,-0.5 -1.12,-1.12v-0.56h-1.68v10.16c0,0.62 -0.5,1.12 -1.12,1.12s-1.12,-0.5 -1.12,-1.12V54.9h-1.68v0.56c0,0.62 -0.5,1.12 -1.12,1.12s-1.12,-0.5 -1.12,-1.12v-2.25c0,-0.31 0.25,-0.56 0.56,-0.56h8.98c0.31,0 0.56,0.25 0.56,0.56V55.46z" fill="#000000" />
  </g>
</svg>
